<?xml version="1.0" encoding="UTF-8"?>
<svg id="Layer_2" data-name="Layer 2" xmlns="http://www.w3.org/2000/svg" viewBox="0 0 1080 504.58">
  <defs>
    <style>
      .cls-1 {
        stroke-width: 0px;
      }
    </style>
  </defs>
  <g id="Layer_1-2" data-name="Layer 1">
    <g>
      <g>
        <rect class="cls-1" y="129.91" width="62.45" height="290.47"/>
        <rect class="cls-1" x="157.37" y="129.91" width="62.45" height="290.47"/>
        <rect class="cls-1" x="316.25" y="129.91" width="62.45" height="290.47"/>
        <rect class="cls-1" x="223.56" y="72.56" width="134.74" height="66.39" transform="translate(10.43 236.69) rotate(-45)"/>
        <rect class="cls-1" x="66.19" y="72.54" width="134.74" height="66.39" transform="translate(-35.65 125.41) rotate(-45)"/>
      </g>
      <g>
        <rect class="cls-1" x="469.67" y="199.65" width="111.58" height="36.38"/>
        <polygon class="cls-1" points="581.25 236.03 581.25 273.02 469.67 273.02 469.67 309.41 581.25 309.41 581.25 346.4 617.89 346.4 617.89 236.03 581.25 236.03"/>
        <rect class="cls-1" x="433.28" y="309.41" width="36.38" height="73.38"/>
        <polygon class="cls-1" points="544.38 382.78 469.67 382.78 469.67 419.17 544.38 419.17 544.38 383.26 581.25 383.26 581.25 346.4 544.38 346.4 544.38 382.78"/>
      </g>
      <polygon class="cls-1" points="662.53 120.82 662.53 167.45 813.57 167.45 662.53 290.69 662.53 360.95 662.53 365.32 662.53 375.97 662.53 404.6 1078.5 404.6 1078.5 360.95 930.22 360.95 1080 234.79 1080 167.45 1080 120.82 662.53 120.82"/>
      <path class="cls-1" d="m768.38,430.25h-57.35v53.78c-.25.07-.47.11-.72.19-5.95,1.97-10.77,6.98-10.77,11.21s4.82,6.05,10.77,4.08,10.77-6.98,10.77-11.21v-.04h0v-29.22h37.25v25.01c-.25.07-.47.11-.72.19-5.95,1.97-10.77,6.98-10.77,11.21s4.82,6.05,10.77,4.08c5.95-1.97,10.77-6.98,10.77-11.21v-.04h0v-58.02Zm-47.31,19.24v-9.71h37.25v9.71h-37.25Z"/>
      <polygon class="cls-1" points="857.6 444.34 845.48 444.34 845.48 430.25 826.93 430.25 826.93 444.34 815.12 444.34 815.12 430.25 796.57 430.25 796.57 444.34 783.95 444.34 783.95 476.65 798.05 476.65 798.05 491.17 812.98 491.17 812.98 504.58 828.57 504.58 828.57 491.17 844 491.17 844 476.65 857.6 476.65 857.6 444.34"/>
      <g>
        <circle class="cls-1" cx="908.06" cy="466.54" r="16.75"/>
        <circle class="cls-1" cx="907.9" cy="435.8" r="7.01"/>
        <circle class="cls-1" cx="885.5" cy="444.04" r="7.01"/>
        <circle class="cls-1" cx="930.56" cy="444.04" r="7.01"/>
        <circle class="cls-1" cx="930.56" cy="489.24" r="7.01"/>
        <circle class="cls-1" cx="939.54" cy="467.08" r="7.01"/>
        <circle class="cls-1" cx="878.49" cy="467.08" r="7.01"/>
        <circle class="cls-1" cx="884.86" cy="489.24" r="7.01"/>
        <circle class="cls-1" cx="907.9" cy="496.87" r="7.01"/>
      </g>
      <g>
        <circle class="cls-1" cx="601.88" cy="37.75" r="16.75"/>
        <circle class="cls-1" cx="601.7" cy="7.01" r="7.01"/>
        <circle class="cls-1" cx="579.32" cy="15.25" r="7.01"/>
        <circle class="cls-1" cx="624.37" cy="15.25" r="7.01"/>
        <circle class="cls-1" cx="624.37" cy="60.44" r="7.01"/>
        <circle class="cls-1" cx="633.36" cy="38.29" r="7.01"/>
        <circle class="cls-1" cx="572.31" cy="38.29" r="7.01"/>
        <circle class="cls-1" cx="578.67" cy="60.44" r="7.01"/>
        <circle class="cls-1" cx="601.7" cy="68.07" r="7.01"/>
      </g>
      <g>
        <rect class="cls-1" x="961.94" y="435.8" width="12.74" height="12.74"/>
        <rect class="cls-1" x="1021.94" y="435.8" width="12.74" height="12.74"/>
        <polygon class="cls-1" points="1021.94 491.08 975.1 491.08 975.1 478.34 962.38 478.34 962.38 491.08 970.58 491.08 970.58 503.13 1026.46 503.13 1026.46 491.08 1034.68 491.08 1034.68 478.34 1021.94 478.34 1021.94 491.08"/>
      </g>
    </g>
  </g>
</svg>