<?xml version="1.0" encoding="utf-8"?>
<!-- Generator: Adobe Illustrator 28.0.0, SVG Export Plug-In . SVG Version: 6.00 Build 0)  -->
<svg version="1.1" id="Layer_1" xmlns="http://www.w3.org/2000/svg" xmlns:xlink="http://www.w3.org/1999/xlink" x="0px" y="0px"
	 viewBox="0 0 600 191" style="enable-background:new 0 0 600 191;" xml:space="preserve">
<style type="text/css">
	.st0{fill:#888888;}
	.st1{fill:#9C5789;}
</style>
<path class="st0" d="M527.5,46c-40,0-72.4,32.4-72.4,72.4c0,40,32.4,72.4,72.4,72.4s72.4-32.4,72.4-72.4
	C599.9,78.4,567.5,46,527.5,46z M527.5,161.1c-23.6,0-42.7-19.1-42.7-42.7c0-23.6,19.1-42.7,42.7-42.7s42.7,19.1,42.7,42.7
	C570.2,142,551.1,161.1,527.5,161.1z"/>
<path class="st0" d="M374,46c-40,0-72.4,32.4-72.4,72.4c0,40,32.4,72.4,72.4,72.4s72.4-32.4,72.4-72.4C446.4,78.4,414,46,374,46z
	 M374,161.1c-23.6,0-42.7-19.1-42.7-42.7c0-23.6,19.1-42.7,42.7-42.7s42.7,19.1,42.7,42.7C416.7,142,397.6,161.1,374,161.1z"/>
<path class="st0" d="M280.6,0h-0.1c-7.9,0-14.3,6.5-14.3,14.4v46.2C254,51.5,238.9,46,222.5,46c-40,0-72.4,32.4-72.4,72.4
	s32.4,72.4,72.4,72.4s72.4-32.4,72.4-72.4v-0.6c0.1-0.2,0.1-0.5,0.1-0.7V14.4C295,6.5,288.5,0,280.6,0z M222.5,161.1
	c-23.6,0-42.7-19.1-42.7-42.7c0-23.6,19.1-42.7,42.7-42.7s42.7,19.1,42.7,42.7C265.2,142,246.1,161.1,222.5,161.1z"/>
<path class="st1" d="M72.4,45.8C32.4,45.8,0,78.2,0,118.2s32.4,72.4,72.4,72.4c40,0,72.4-32.4,72.4-72.4S112.4,45.8,72.4,45.8z
	 M71.7,161.2c-23.6,0-42.7-19.1-42.7-42.7s19.1-42.7,42.7-42.7s42.7,19.1,42.7,42.7S95.3,161.2,71.7,161.2z"/>
</svg>
